<svg width="150" height="151" viewBox="0 0 150 151" fill="none" xmlns="http://www.w3.org/2000/svg" role="img" aria-labelledby="aegis-logo-title">
  <title id="aegis-logo-title">Aegis logo</title>
  <path d="M64.7727 0.691736C28.1896 5.67985 0 37.048 0 75.0003C0 112.952 28.1896 144.321 64.7727 149.309C68.264 148.833 71.6788 148.116 75 147.177C106.48 138.274 129.545 109.141 129.545 74.8109C129.545 51.4969 113.281 31.9817 91.4795 26.993C87.8685 26.1667 84.1035 26.1664 80.4924 26.9925C78.6184 27.4212 76.7854 27.9573 75 28.5939C93.9861 35.3633 107.576 53.5001 107.576 74.8109C107.576 96.1216 93.9861 114.258 75 121.028C73.2146 121.664 71.3816 122.2 69.5076 122.629C65.8965 123.455 62.1318 123.454 58.5199 122.632C36.7188 117.667 20.4545 98.314 20.4545 75.0003C20.4545 40.67 43.5204 11.727 75 2.82341C78.3212 1.88407 81.736 1.16777 85.2273 0.691735C81.8833 0.235781 78.4691 0.000244141 75 0.000244141C71.5309 0.000244141 68.1167 0.235782 64.7727 0.691736Z" fill="url(#paint0_linear_70_69)"/>
  <path d="M85.2273 149.374C121.81 144.386 150 113.018 150 75.0659C150 37.1137 121.81 5.74551 85.2273 0.757401C81.736 1.23343 78.3212 1.94972 75 2.88907C43.5204 11.7926 20.4545 40.925 20.4545 75.2553C20.4545 98.5693 36.7191 118.084 58.5205 123.073C62.1315 123.899 65.8965 123.9 69.5076 123.074C71.3816 122.645 73.2146 122.109 75 121.472C56.0139 114.703 42.4242 96.5661 42.4242 75.2553C42.4242 53.9445 56.0139 35.8078 75 29.0383C76.7854 28.4017 78.6184 27.8657 80.4924 27.437C84.1035 26.6108 87.8682 26.612 91.4801 27.4345C113.281 32.3988 129.545 51.7522 129.545 75.0659C129.545 109.396 106.48 138.339 75 147.243C71.6788 148.182 68.264 148.898 64.7727 149.374C68.1167 149.83 71.5309 150.066 75 150.066C78.4691 150.066 81.8833 149.83 85.2273 149.374Z" fill="url(#paint1_linear_70_69)"/>
  <defs>
    <linearGradient id="paint0_linear_70_69" x1="64.7727" y1="149.309" x2="64.7727" y2="0.000244141" gradientUnits="userSpaceOnUse">
      <stop stop-color="white"/>
      <stop offset="1" stop-color="#1C1C21"/>
    </linearGradient>
    <linearGradient id="paint1_linear_70_69" x1="85.2273" y1="0.757401" x2="85.2273" y2="150.066" gradientUnits="userSpaceOnUse">
      <stop stop-color="white"/>
      <stop offset="1" stop-color="#1C1C21"/>
    </linearGradient>
  </defs>
</svg>
